<svg height="24" viewBox="0 0 24 24" width="24" xmlns="http://www.w3.org/2000/svg">
  <path d="M12 0C5.373 0 0 5.373 0 12c0 5.302 3.438 9.8 8.207 11.387.599.111.793-.261.793-.579v-2.234c-3.338.724-4.033-1.417-4.033-1.417-.546-1.387-1.333-1.756-1.333-1.756-1.089-.745.082-.73.082-.73 1.205.084 1.839 1.24 1.839 1.24 1.07 1.836 2.809 1.306 3.492.998.107-.775.418-1.306.76-1.606-2.665-.305-5.466-1.332-5.466-5.93 0-1.31.467-2.381 1.236-3.221-.124-.304-.536-1.529.117-3.186 0 0 1.008-.322 3.3 1.23.96-.267 1.985-.4 3.006-.405 1.02.005 2.047.138 3.007.405 2.29-1.552 3.296-1.23 3.296-1.23.654 1.657.242 2.882.118 3.186.77.84 1.235 1.911 1.235 3.221 0 4.609-2.804 5.622-5.475 5.921.43.372.814 1.102.814 2.222v3.293c0 .319.192.694.801.576C20.565 21.795 24 17.297 24 12 24 5.373 18.627 0 12 0z"/>
</svg>
